solid OpenSCAD_Model
  facet normal 1 -0 0
    outer loop
      vertex 26 0 3
      vertex 26 104 0
      vertex 26 104 3
    endloop
  endfacet
  facet normal 1 0 0
    outer loop
      vertex 26 104 0
      vertex 26 0 3
      vertex 26 0 0
    endloop
  endfacet
  facet normal -0 0 1
    outer loop
      vertex 0 104 3
      vertex 2 0 3
      vertex 2 104 3
    endloop
  endfacet
  facet normal 0 0 1
    outer loop
      vertex 2 0 3
      vertex 0 104 3
      vertex 0 0 3
    endloop
  endfacet
  facet normal -0 0 1
    outer loop
      vertex 24 104 3
      vertex 26 0 3
      vertex 26 104 3
    endloop
  endfacet
  facet normal 0 0 1
    outer loop
      vertex 26 0 3
      vertex 24 104 3
      vertex 24 0 3
    endloop
  endfacet
  facet normal 0 0 -1
    outer loop
      vertex 20 65 0
      vertex 26 0 0
      vertex 20 20 0
    endloop
  endfacet
  facet normal 0 0 -1
    outer loop
      vertex 26 0 0
      vertex 6 20 0
      vertex 20 20 0
    endloop
  endfacet
  facet normal -0 0 -1
    outer loop
      vertex 6 20 0
      vertex 0 0 0
      vertex 6 65 0
    endloop
  endfacet
  facet normal 0 0 -1
    outer loop
      vertex 0 0 0
      vertex 6 20 0
      vertex 26 0 0
    endloop
  endfacet
  facet normal 0 0 -1
    outer loop
      vertex 26 0 0
      vertex 20 65 0
      vertex 26 104 0
    endloop
  endfacet
  facet normal 0 0 -1
    outer loop
      vertex 6 65 0
      vertex 26 104 0
      vertex 20 65 0
    endloop
  endfacet
  facet normal 0 0 -1
    outer loop
      vertex 6 65 0
      vertex 0 104 0
      vertex 26 104 0
    endloop
  endfacet
  facet normal 0 0 -1
    outer loop
      vertex 0 104 0
      vertex 6 65 0
      vertex 0 0 0
    endloop
  endfacet
  facet normal -1 0 0
    outer loop
      vertex 0 0 0
      vertex 0 104 3
      vertex 0 104 0
    endloop
  endfacet
  facet normal -1 -0 0
    outer loop
      vertex 0 104 3
      vertex 0 0 0
      vertex 0 0 3
    endloop
  endfacet
  facet normal 0 1 0
    outer loop
      vertex 26 104 3
      vertex 24 104 2
      vertex 24 104 3
    endloop
  endfacet
  facet normal 0 1 0
    outer loop
      vertex 24 104 2
      vertex 26 104 0
      vertex 2 104 2
    endloop
  endfacet
  facet normal 0 1 -0
    outer loop
      vertex 26 104 0
      vertex 24 104 2
      vertex 26 104 3
    endloop
  endfacet
  facet normal 0 1 -0
    outer loop
      vertex 2 104 2
      vertex 0 104 3
      vertex 2 104 3
    endloop
  endfacet
  facet normal 0 1 0
    outer loop
      vertex 2 104 2
      vertex 0 104 0
      vertex 0 104 3
    endloop
  endfacet
  facet normal 0 1 0
    outer loop
      vertex 0 104 0
      vertex 2 104 2
      vertex 26 104 0
    endloop
  endfacet
  facet normal 0 -1 0
    outer loop
      vertex 0 0 3
      vertex 2 0 2
      vertex 2 0 3
    endloop
  endfacet
  facet normal 0 -1 -0
    outer loop
      vertex 2 0 2
      vertex 0 0 0
      vertex 24 0 2
    endloop
  endfacet
  facet normal 0 -1 0
    outer loop
      vertex 0 0 0
      vertex 2 0 2
      vertex 0 0 3
    endloop
  endfacet
  facet normal 0 -1 0
    outer loop
      vertex 24 0 2
      vertex 26 0 3
      vertex 24 0 3
    endloop
  endfacet
  facet normal 0 -1 0
    outer loop
      vertex 24 0 2
      vertex 26 0 0
      vertex 26 0 3
    endloop
  endfacet
  facet normal 0 -1 0
    outer loop
      vertex 26 0 0
      vertex 24 0 2
      vertex 0 0 0
    endloop
  endfacet
  facet normal -1 0 0
    outer loop
      vertex 24 0 2
      vertex 24 104 3
      vertex 24 104 2
    endloop
  endfacet
  facet normal -1 -0 0
    outer loop
      vertex 24 104 3
      vertex 24 0 2
      vertex 24 0 3
    endloop
  endfacet
  facet normal 0 0 1
    outer loop
      vertex 24 104 2
      vertex 20 65 2
      vertex 24 0 2
    endloop
  endfacet
  facet normal 0 0 1
    outer loop
      vertex 24 104 2
      vertex 6 65 2
      vertex 20 65 2
    endloop
  endfacet
  facet normal 0 0 1
    outer loop
      vertex 2 0 2
      vertex 6 65 2
      vertex 2 104 2
    endloop
  endfacet
  facet normal -0 0 1
    outer loop
      vertex 2 104 2
      vertex 6 65 2
      vertex 24 104 2
    endloop
  endfacet
  facet normal -0 0 1
    outer loop
      vertex 20 20 2
      vertex 24 0 2
      vertex 20 65 2
    endloop
  endfacet
  facet normal -0 0 1
    outer loop
      vertex 6 20 2
      vertex 24 0 2
      vertex 20 20 2
    endloop
  endfacet
  facet normal 0 0 1
    outer loop
      vertex 6 20 2
      vertex 2 0 2
      vertex 24 0 2
    endloop
  endfacet
  facet normal 0 0 1
    outer loop
      vertex 6 65 2
      vertex 2 0 2
      vertex 6 20 2
    endloop
  endfacet
  facet normal 1 -0 0
    outer loop
      vertex 2 0 3
      vertex 2 104 2
      vertex 2 104 3
    endloop
  endfacet
  facet normal 1 0 0
    outer loop
      vertex 2 104 2
      vertex 2 0 3
      vertex 2 0 2
    endloop
  endfacet
  facet normal -1 0 0
    outer loop
      vertex 20 20 0
      vertex 20 65 2
      vertex 20 65 0
    endloop
  endfacet
  facet normal -1 -0 0
    outer loop
      vertex 20 65 2
      vertex 20 20 0
      vertex 20 20 2
    endloop
  endfacet
  facet normal 1 -0 0
    outer loop
      vertex 6 20 2
      vertex 6 65 0
      vertex 6 65 2
    endloop
  endfacet
  facet normal 1 0 0
    outer loop
      vertex 6 65 0
      vertex 6 20 2
      vertex 6 20 0
    endloop
  endfacet
  facet normal 0 -1 0
    outer loop
      vertex 6 65 0
      vertex 20 65 2
      vertex 6 65 2
    endloop
  endfacet
  facet normal 0 -1 -0
    outer loop
      vertex 20 65 2
      vertex 6 65 0
      vertex 20 65 0
    endloop
  endfacet
  facet normal 0 1 -0
    outer loop
      vertex 20 20 0
      vertex 6 20 2
      vertex 20 20 2
    endloop
  endfacet
  facet normal 0 1 0
    outer loop
      vertex 6 20 2
      vertex 20 20 0
      vertex 6 20 0
    endloop
  endfacet
endsolid OpenSCAD_Model
